<svg width="20" height="20" viewBox="0 0 20 20" fill="none" xmlns="http://www.w3.org/2000/svg">
<g clip-path="url(#clip0_1_511)">
<path d="M19.1667 10.0338C19.1667 4.95256 15.0626 0.833416 10 0.833416C4.93741 0.833416 0.833344 4.95256 0.833344 10.0338C0.833344 14.3486 3.79289 17.969 7.78556 18.9632V12.8453H5.89532V10.0338H7.78556V8.82231C7.78556 5.6908 9.19752 4.23935 12.2607 4.23935C12.8414 4.23935 13.8434 4.35362 14.2534 4.46793V7.01657C14.037 6.99372 13.6613 6.98227 13.1944 6.98227C11.6913 6.98227 11.1105 7.55372 11.1105 9.03947V10.0338H14.1047L13.5903 12.8453H11.1105V19.1667C15.6494 18.6165 19.1667 14.7377 19.1667 10.0338Z" fill="#5F7896"/>
</g>
<defs>
<clipPath id="clip0_1_511">
<rect width="20" height="20" fill="white"/>
</clipPath>
</defs>
</svg>
